<svg xmlns="http://www.w3.org/2000/svg" style="display: none;">
  <symbol id="edit" viewBox="0 0 24 24">
    <g stroke-width="0"></g>
    <g stroke-linecap="round" stroke-linejoin="round"></g>
    <g>
      <path d="M21.2799 6.40005L11.7399 15.94C10.7899 16.89 7.96987 17.33 7.33987 16.7C6.70987 16.07 7.13987 13.25 8.08987 12.3L17.6399 2.75002C17.8754 2.49308 18.1605 2.28654 18.4781 2.14284C18.7956 1.99914 19.139 1.92124 19.4875 1.9139C19.8359 1.90657 20.1823 1.96991 20.5056 2.10012C20.8289 2.23033 21.1225 2.42473 21.3686 2.67153C21.6147 2.91833 21.8083 3.21243 21.9376 3.53609C22.0669 3.85976 22.1294 4.20626 22.1211 4.55471C22.1128 4.90316 22.0339 5.24635 21.8894 5.5635C21.7448 5.88065 21.5375 6.16524 21.2799 6.40005V6.40005Z" stroke="#74a7fe" stroke-width="1.5" stroke-linecap="round" stroke-linejoin="round"></path>
      <path d="M11 4H6C4.93913 4 3.92178 4.42142 3.17163 5.17157C2.42149 5.92172 2 6.93913 2 8V18C2 19.0609 2.42149 20.0783 3.17163 20.8284C3.92178 21.5786 4.93913 22 6 22H17C19.21 22 20 20.2 20 18V13" stroke="#74a7fe" stroke-width="1.5" stroke-linecap="round" stroke-linejoin="round"></path>
    </g>
  </symbol>
  <symbol id="submit" viewBox="0 0 1024 1024">
    <g id="SVGRepo_bgCarrier" stroke-width="0"></g>
    <g id="SVGRepo_tracerCarrier" stroke-linecap="round" stroke-linejoin="round"></g>
    <g id="SVGRepo_iconCarrier">
      <path d="M905.92 237.76a32 32 0 0 0-52.48 36.48A416 416 0 1 1 96 512a418.56 418.56 0 0 1 297.28-398.72 32 32 0 1 0-18.24-61.44A480 480 0 1 0 992 512a477.12 477.12 0 0 0-86.08-274.24z" fill="#96d35f"></path>
      <path d="M630.72 113.28A413.76 413.76 0 0 1 768 185.28a32 32 0 0 0 39.68-50.24 476.8 476.8 0 0 0-160-83.2 32 32 0 0 0-18.24 61.44zM489.28 86.72a36.8 36.8 0 0 0 10.56 6.72 30.08 30.08 0 0 0 24.32 0 37.12 37.12 0 0 0 10.56-6.72A32 32 0 0 0 544 64a33.6 33.6 0 0 0-9.28-22.72A32 32 0 0 0 505.6 32a20.8 20.8 0 0 0-5.76 1.92 23.68 23.68 0 0 0-5.76 2.88l-4.8 3.84a32 32 0 0 0-6.72 10.56A32 32 0 0 0 480 64a32 32 0 0 0 2.56 12.16 37.12 37.12 0 0 0 6.72 10.56zM230.08 467.84a36.48 36.48 0 0 0 0 51.84L413.12 704a36.48 36.48 0 0 0 51.84 0l328.96-330.56A36.48 36.48 0 0 0 742.08 320l-303.36 303.36-156.8-155.52a36.8 36.8 0 0 0-51.84 0z" fill="#96d35f"></path>
    </g>
  </symbol>
  <symbol id="cancel" viewBox="0 0 32 32" stroke="#ff6251">
    <g id="SVGRepo_bgCarrier" stroke-width="0"></g>
    <g id="SVGRepo_tracerCarrier" stroke-linecap="round" stroke-linejoin="round"></g>
    <g id="SVGRepo_iconCarrier">
      <path d="M10.771 8.518c-1.144 0.215-2.83 2.171-2.086 2.915l4.573 4.571-4.573 4.571c-0.915 0.915 1.829 3.656 2.744 2.742l4.573-4.571 4.573 4.571c0.915 0.915 3.658-1.829 2.744-2.742l-4.573-4.571 4.573-4.571c0.915-0.915-1.829-3.656-2.744-2.742l-4.573 4.571-4.573-4.571c-0.173-0.171-0.394-0.223-0.657-0.173v0zM16 1c-8.285 0-15 6.716-15 15s6.715 15 15 15 15-6.716 15-15-6.715-15-15-15zM16 4.75c6.213 0 11.25 5.037 11.25 11.25s-5.037 11.25-11.25 11.25-11.25-5.037-11.25-11.25c0.001-6.213 5.037-11.25 11.25-11.25z"></path>
    </g>
  </symbol>
  <symbol id="delete" viewBox="0 0 24 24">
    <g id="SVGRepo_bgCarrier" stroke-width="0"></g>
    <g id="SVGRepo_tracerCarrier" stroke-linecap="round" stroke-linejoin="round"></g>
    <g id="SVGRepo_iconCarrier">
      <g id="页面-1" stroke="none" stroke-width="1" fill="none" fill-rule="evenodd">
        <g id="System" transform="translate(-576.000000, -240.000000)">
          <g id="delete_2_fill" transform="translate(576.000000, 240.000000)">
            <path d="M24,0 L24,24 L0,24 L0,0 L24,0 Z M12.5934901,23.257841 L12.5819402,23.2595131 L12.5108777,23.2950439 L12.4918791,23.2987469 L12.4918791,23.2987469 L12.4767152,23.2950439 L12.4056548,23.2595131 C12.3958229,23.2563662 12.3870493,23.2590235 12.3821421,23.2649074 L12.3780323,23.275831 L12.360941,23.7031097 L12.3658947,23.7234994 L12.3769048,23.7357139 L12.4804777,23.8096931 L12.4953491,23.8136134 L12.4953491,23.8136134 L12.5071152,23.8096931 L12.6106902,23.7357139 L12.6232938,23.7196733 L12.6232938,23.7196733 L12.6266527,23.7031097 L12.609561,23.275831 C12.6075724,23.2657013 12.6010112,23.2592993 12.5934901,23.257841 L12.5934901,23.257841 Z M12.8583906,23.1452862 L12.8445485,23.1473072 L12.6598443,23.2396597 L12.6498822,23.2499052 L12.6498822,23.2499052 L12.6471943,23.2611114 L12.6650943,23.6906389 L12.6699349,23.7034178 L12.6699349,23.7034178 L12.678386,23.7104931 L12.8793402,23.8032389 C12.8914285,23.8068999 12.9022333,23.8029875 12.9078286,23.7952264 L12.9118235,23.7811639 L12.8776777,23.1665331 C12.8752882,23.1545897 12.8674102,23.1470016 12.8583906,23.1452862 L12.8583906,23.1452862 Z M12.1430473,23.1473072 C12.1332178,23.1423925 12.1221763,23.1452606 12.1156365,23.1525954 L12.1099173,23.1665331 L12.0757714,23.7811639 C12.0751323,23.7926639 12.0828099,23.8018602 12.0926481,23.8045676 L12.108256,23.8032389 L12.3092106,23.7104931 L12.3186497,23.7024347 L12.3186497,23.7024347 L12.3225043,23.6906389 L12.340401,23.2611114 L12.337245,23.2485176 L12.337245,23.2485176 L12.3277531,23.2396597 L12.1430473,23.1473072 Z" id="MingCute" fill-rule="nonzero"></path>
            <path d="M14.2792,2 C15.1401,2 15.9044,2.55086 16.1766,3.36754 L16.7208,5 L20,5 C20.5523,5 21,5.44772 21,6 C21,6.55227 20.5523,6.99998 20,7 L19.9975,7.07125 L19.9975,7.07125 L19.1301,19.2137 C19.018,20.7837 17.7117,22 16.1378,22 L7.86224,22 C6.28832,22 4.982,20.7837 4.86986,19.2137 L4.00254,7.07125 C4.00083,7.04735 3.99998,7.02359 3.99996,7 C3.44769,6.99998 3,6.55227 3,6 C3,5.44772 3.44772,5 4,5 L7.27924,5 L7.82339,3.36754 C8.09562,2.55086 8.8599,2 9.72076,2 L14.2792,2 Z M9,10 C8.48715929,10 8.06449214,10.386027 8.00672766,10.8833761 L8,11 L8,17 C8,17.5523 8.44771,18 9,18 C9.51284071,18 9.93550786,17.613973 9.99327234,17.1166239 L10,17 L10,11 C10,10.4477 9.55229,10 9,10 Z M15,10 C14.4477,10 14,10.4477 14,11 L14,17 C14,17.5523 14.4477,18 15,18 C15.5523,18 16,17.5523 16,17 L16,11 C16,10.4477 15.5523,10 15,10 Z M14.2792,4 L9.72076,4 L9.38743,5 L14.6126,5 L14.2792,4 Z" id="形状" fill="#ff4013"></path>
          </g>
        </g>
      </g>
    </g>
  </symbol>
  <symbol id="add" viewBox="0 0 24 24" fill='none'>
    <g id="SVGRepo_bgCarrier" stroke-width="0"></g>
    <g id="SVGRepo_tracerCarrier" stroke-linecap="round" stroke-linejoin="round"></g>
    <g id="SVGRepo_iconCarrier">
      <path d="M15 12L12 12M12 12L9 12M12 12L12 9M12 12L12 15" stroke="#1C274C" stroke-width="1.5" stroke-linecap="round"></path>
      <path d="M7 3.33782C8.47087 2.48697 10.1786 2 12 2C17.5228 2 22 6.47715 22 12C22 17.5228 17.5228 22 12 22C6.47715 22 2 17.5228 2 12C2 10.1786 2.48697 8.47087 3.33782 7" stroke="#1C274C" stroke-width="1.5" stroke-linecap="round"></path>
    </g>
  </symbol>
  <symbol id="error" viewBox="0 0 24 24" fill='none'>
    <g id="SVGRepo_bgCarrier" stroke-width="0"></g>
    <g id="SVGRepo_tracerCarrier" stroke-linecap="round" stroke-linejoin="round"></g>
    <g id="SVGRepo_iconCarrier">
      <path fill-rule="evenodd" clip-rule="evenodd" d="M12 22c5.523 0 10-4.477 10-10S17.523 2 12 2 2 6.477 2 12s4.477 10 10 10zm-1.5-5.009c0-.867.659-1.491 1.491-1.491.85 0 1.509.624 1.509 1.491 0 .867-.659 1.509-1.509 1.509-.832 0-1.491-.642-1.491-1.509zM11.172 6a.5.5 0 0 0-.499.522l.306 7a.5.5 0 0 0 .5.478h1.043a.5.5 0 0 0 .5-.478l.305-7a.5.5 0 0 0-.5-.522h-1.655z" fill="#ff4013"></path>
    </g>
  </symbol>
  <symbol id="loading" viewBox="0 0 512 512" fill='#000000'>
    <g id="SVGRepo_bgCarrier" stroke-width="0"></g>
    <g id="SVGRepo_tracerCarrier" stroke-linecap="round" stroke-linejoin="round"></g>
    <g id="SVGRepo_iconCarrier">
      <g>
        <g>
          <path d="M425.956,477.812h-1.489V428.64c0-4.147-1.508-8.152-4.242-11.269l-141.49-161.37L420.225,94.63 c2.734-3.117,4.242-7.122,4.242-11.27V34.188h1.49c9.44,0,17.094-7.654,17.094-17.094S435.396,0,425.956,0H86.044 C76.604,0,68.95,7.654,68.95,17.094s7.654,17.094,17.094,17.094h1.491V83.36c0,4.147,1.508,8.152,4.24,11.27l141.49,161.371 L91.775,417.37c-2.733,3.117-4.24,7.122-4.24,11.269v49.173h-1.491c-9.44,0-17.094,7.654-17.094,17.094S76.604,512,86.044,512 h339.91c9.44,0,17.094-7.654,17.094-17.094S435.396,477.812,425.956,477.812z M121.723,34.188h268.556v32.079H121.723V34.188z M165.878,127.287l-23.527-26.832h227.299l-23.266,26.534H168.997C167.93,126.99,166.891,127.101,165.878,127.287z M195.593,161.178h120.815l-60.408,68.894L195.593,161.178z M238.905,301.424v23.102c0.001,9.442,7.654,17.094,17.095,17.094 c9.44,0,17.094-7.654,17.094-17.094v-23.102l96.556,110.122h-227.3L238.905,301.424z M390.278,477.812H121.723v-32.079h268.556 V477.812z"></path>
        </g>
      </g>
      <g>
        <g> 
          <circle cx="255.999" cy="376.261" r="18.803"></circle>
        </g>
      </g>
    </g>
  </symbol>
</svg>